<?xml version="1.0" standalone="no"?>
<!DOCTYPE svg PUBLIC "-//W3C//DTD SVG 20010904//EN"
 "http://www.w3.org/TR/2001/REC-SVG-20010904/DTD/svg10.dtd">
<svg version="1.0" xmlns="http://www.w3.org/2000/svg"
 width="512.000000pt" height="512.000000pt" viewBox="0 0 512.000000 512.000000"
 preserveAspectRatio="xMidYMid meet">
<metadata>
Created by potrace 1.14, written by Peter Selinger 2001-2017
</metadata>
<g transform="translate(0.000000,512.000000) scale(0.100000,-0.100000)"
fill="#000000" stroke="none">
<path d="M367 3772 c-16 -2 -34 -14 -44 -29 -15 -23 -17 -116 -18 -1122 0
-603 3 -1109 7 -1125 12 -48 32 -55 151 -56 101 0 109 1 132 25 l25 24 0 481
0 481 185 -1 c274 -2 341 -26 491 -174 50 -50 101 -105 112 -122 38 -55 242
-406 242 -415 0 -5 5 -9 10 -9 6 0 9 -3 8 -7 -1 -5 6 -21 16 -38 11 -16 30
-47 43 -67 12 -21 23 -40 23 -43 0 -2 14 -27 30 -54 43 -70 73 -81 215 -81
115 0 155 9 155 34 0 18 -36 84 -111 206 -36 58 -123 200 -194 315 -173 282
-214 335 -324 425 -24 19 -48 40 -55 45 -6 6 -21 18 -34 27 -23 16 -23 16 30
23 280 36 479 177 567 401 57 146 47 348 -25 494 -85 173 -285 307 -502 336
-26 3 -49 8 -53 9 -19 12 -212 18 -604 19 -247 1 -462 0 -478 -2z m1013 -277
c215 -42 303 -96 347 -215 19 -50 22 -75 19 -157 -11 -264 -138 -367 -493
-399 -58 -5 -501 -9 -605 -5 l-28 1 0 395 0 395 363 -4 c199 -2 378 -7 397
-11z"/>
<path d="M2610 3758 c-15 -9 -29 -27 -31 -40 -8 -43 -3 -2213 5 -2236 11 -33
44 -42 156 -42 81 0 102 3 121 19 l24 19 2 934 c2 513 3 938 4 943 0 6 26 -69
58 -165 68 -203 367 -1114 472 -1435 78 -240 99 -287 136 -304 13 -6 75 -11
138 -11 106 0 115 2 143 25 36 30 18 -19 272 755 324 987 374 1139 377 1136 2
-2 3 -422 3 -935 l0 -932 24 -24 c24 -24 31 -25 133 -25 121 1 136 7 149 60 7
26 11 1941 5 2191 -1 20 -9 47 -19 60 -19 22 -23 22 -213 23 -107 0 -205 -3
-219 -7 -45 -11 -35 16 -296 -807 -31 -96 -66 -206 -79 -245 -13 -38 -49 -151
-80 -250 -31 -99 -60 -191 -65 -205 -37 -103 -112 -362 -126 -440 -10 -52 -21
-38 -41 52 -11 51 -48 179 -81 283 -72 227 -267 839 -324 1015 -22 69 -52 166
-68 215 -83 268 -111 342 -135 365 -24 22 -30 23 -221 24 -167 1 -201 -2 -224
-16z"/>
</g>
</svg>
